<svg width="14" height="12" viewBox="0 0 14 12" fill="none" xmlns="http://www.w3.org/2000/svg">
<path d="M7.25628 0.251051C7.59799 -0.0836838 8.15201 -0.0836838 8.49372 0.251051L13.7437 5.39391C13.9078 5.55466 14 5.77267 14 6C14 6.22733 13.9078 6.44535 13.7437 6.60609L8.49372 11.7489C8.15201 12.0837 7.59799 12.0837 7.25628 11.7489C6.91457 11.4142 6.91457 10.8715 7.25628 10.5368L11.0126 6.85714L0.875 6.85714C0.391751 6.85714 0 6.47339 0 6C0 5.52661 0.391751 5.14286 0.875 5.14286L11.0126 5.14286L7.25628 1.46323C6.91457 1.1285 6.91457 0.585786 7.25628 0.251051Z" fill="#252525"/>
</svg>
