<svg width="14" height="12" viewBox="0 0 14 12" fill="none" xmlns="http://www.w3.org/2000/svg">
<path d="M6.74372 0.251051C6.40201 -0.0836838 5.84799 -0.0836838 5.50628 0.251051L0.256282 5.39391C0.0921879 5.55466 0 5.77267 0 6C0 6.22733 0.0921879 6.44535 0.256282 6.60609L5.50628 11.7489C5.84799 12.0837 6.40201 12.0837 6.74372 11.7489C7.08543 11.4142 7.08543 10.8715 6.74372 10.5368L2.98744 6.85714L13.125 6.85714C13.6082 6.85714 14 6.47339 14 6C14 5.52661 13.6082 5.14286 13.125 5.14286L2.98744 5.14286L6.74372 1.46323C7.08543 1.1285 7.08543 0.585786 6.74372 0.251051Z" fill="#252525"/>
</svg>
