<svg width="94" height="17" viewBox="0 0 94 17" fill="none" xmlns="http://www.w3.org/2000/svg">
<path d="M11.7633 13.9839H4.11843L2.90864 16.7258H0L7.4904 0H8.41705L15.9074 16.7258H12.9731L11.7633 13.9839ZM7.95372 4.91056L5.09656 11.7155H10.7851L7.95372 4.91056Z" fill="white"/>
<path d="M30.8891 0.274193L23.3986 17H22.472L14.9816 0.274193H18.0447L22.9353 11.7155L27.826 0.274193H30.8891Z" fill="white"/>
<path d="M41.7265 13.9839H34.0816L32.8718 16.7258H29.9632L37.4536 0H38.3802L45.8707 16.7258H42.9363L41.7265 13.9839ZM37.9169 4.91056L35.0598 11.7155H40.7483L37.9169 4.91056Z" fill="white"/>
<path d="M48.5762 0.274193H51.3046V16.7258H48.5762V0.274193ZM62.6303 16.7258H59.2584L51.3819 7.97654L58.5119 0.274193H61.8581L54.8053 7.97654L62.6303 16.7258Z" fill="white"/>
<path d="M65.3425 0.274193H76.5138V2.64223H68.071V6.85484H74.4288V9.14809H68.071V14.3578H76.8226V16.7258H65.3425V0.274193Z" fill="white"/>
<path d="M94 0.274193V17H93.0734L82.7258 5.58358V16.7258H79.9973V0H80.9497L91.2715 11.3666V0.274193H94Z" fill="white"/>
</svg>
