<svg width="11" height="11" viewBox="0 0 11 11" fill="none" xmlns="http://www.w3.org/2000/svg">
<path d="M5.70136 0.277081C5.96985 -0.00186539 6.40515 -0.00186539 6.67364 0.277081L10.7986 4.5628C10.9276 4.69675 11 4.87843 11 5.06787C11 5.25731 10.9276 5.43899 10.7986 5.57295L6.67364 9.85866C6.40515 10.1376 5.96985 10.1376 5.70136 9.85866C5.43288 9.57972 5.43288 9.12745 5.70136 8.84851L8.65273 5.78216L0.6875 5.78216C0.307804 5.78216 0 5.46236 0 5.06787C0 4.67338 0.307804 4.35359 0.6875 4.35359L8.65273 4.35359L5.70136 1.28723C5.43288 1.00829 5.43288 0.556026 5.70136 0.277081Z" fill="white"/>
</svg>
