<svg width="11" height="10" viewBox="0 0 11 10" fill="none" xmlns="http://www.w3.org/2000/svg">
<path d="M5.70136 0.209209C5.96985 -0.0697365 6.40515 -0.0697365 6.67364 0.209209L10.7986 4.49492C10.9276 4.62888 11 4.81056 11 5C11 5.18944 10.9276 5.37112 10.7986 5.50508L6.67364 9.79079C6.40515 10.0697 5.96985 10.0697 5.70136 9.79079C5.43288 9.51184 5.43288 9.05958 5.70136 8.78064L8.65273 5.71429L0.6875 5.71429C0.307804 5.71429 0 5.39449 0 5C0 4.60551 0.307804 4.28572 0.6875 4.28572L8.65273 4.28572L5.70136 1.21936C5.43288 0.940416 5.43288 0.488155 5.70136 0.209209Z" fill="#252525"/>
</svg>
