<svg width="25" height="25" viewBox="0 0 25 25" fill="none" xmlns="http://www.w3.org/2000/svg">
<mask id="path-1-inside-1" fill="white">
<path fill-rule="evenodd" clip-rule="evenodd" d="M11 23.5C11 24.3284 11.6716 25 12.5 25C13.3284 25 14 24.3284 14 23.5V14H23.5C24.3284 14 25 13.3284 25 12.5C25 11.6716 24.3284 11 23.5 11H14V1.5C14 0.671573 13.3284 0 12.5 0C11.6716 0 11 0.671573 11 1.5V11H1.5C0.671573 11 0 11.6716 0 12.5C0 13.3284 0.671573 14 1.5 14H11V23.5Z"/>
</mask>
<path fill-rule="evenodd" clip-rule="evenodd" d="M11 23.5C11 24.3284 11.6716 25 12.5 25C13.3284 25 14 24.3284 14 23.5V14H23.5C24.3284 14 25 13.3284 25 12.5C25 11.6716 24.3284 11 23.5 11H14V1.5C14 0.671573 13.3284 0 12.5 0C11.6716 0 11 0.671573 11 1.5V11H1.5C0.671573 11 0 11.6716 0 12.5C0 13.3284 0.671573 14 1.5 14H11V23.5Z" fill="white"/>
<path d="M14 14V12H12V14H14ZM14 11H12V13H14V11ZM11 11V13H13V11H11ZM11 14H13V12H11V14ZM12.5 23C12.7761 23 13 23.2239 13 23.5H9C9 25.433 10.567 27 12.5 27V23ZM12 23.5C12 23.2239 12.2239 23 12.5 23V27C14.433 27 16 25.433 16 23.5H12ZM12 14V23.5H16V14H12ZM23.5 12H14V16H23.5V12ZM23 12.5C23 12.2239 23.2239 12 23.5 12V16C25.433 16 27 14.433 27 12.5H23ZM23.5 13C23.2239 13 23 12.7761 23 12.5H27C27 10.567 25.433 9 23.5 9V13ZM14 13H23.5V9H14V13ZM12 1.5V11H16V1.5H12ZM12.5 2C12.2239 2 12 1.77614 12 1.5H16C16 -0.432996 14.433 -2 12.5 -2V2ZM13 1.5C13 1.77614 12.7761 2 12.5 2V-2C10.567 -2 9 -0.432996 9 1.5H13ZM13 11V1.5H9V11H13ZM1.5 13H11V9H1.5V13ZM2 12.5C2 12.7761 1.77614 13 1.5 13V9C-0.432996 9 -2 10.567 -2 12.5H2ZM1.5 12C1.77614 12 2 12.2239 2 12.5H-2C-2 14.433 -0.432996 16 1.5 16V12ZM11 12H1.5V16H11V12ZM13 23.5V14H9V23.5H13Z" fill="white" mask="url(#path-1-inside-1)"/>
</svg>
