<svg width="116" height="21" viewBox="0 0 116 21" fill="none" xmlns="http://www.w3.org/2000/svg">
<path d="M14.5164 17.2742H5.08232L3.58939 20.6613H0L9.24347 0H10.387L19.6305 20.6613H16.0093L14.5164 17.2742ZM9.81523 6.06598L6.28937 14.4721H13.3093L9.81523 6.06598Z" fill="#252525"/>
<path d="M38.1184 0.338709L28.8749 21H27.7314L18.4879 0.338709H22.2679L28.3032 14.4721L34.3384 0.338709H38.1184Z" fill="#252525"/>
<path d="M51.4922 17.2742H42.0582L40.5653 20.6613H36.9759L46.2193 0H47.3629L56.6063 20.6613H52.9852L51.4922 17.2742ZM46.7911 6.06598L43.2652 14.4721H50.2852L46.7911 6.06598Z" fill="#252525"/>
<path d="M59.9451 0.338709H63.3121V20.6613H59.9451V0.338709ZM77.2885 20.6613H73.1273L63.4074 9.85337L72.2062 0.338709H76.3356L67.6321 9.85337L77.2885 20.6613Z" fill="#252525"/>
<path d="M80.6354 0.338709H94.4212V3.26393H84.0025V8.46774H91.8483V11.3006H84.0025V17.7361H94.8024V20.6613H80.6354V0.338709Z" fill="#252525"/>
<path d="M116 0.338709V21H114.856L102.087 6.89736V20.6613H98.7201V0H99.8954L112.633 14.0411V0.338709H116Z" fill="#252525"/>
</svg>
