<svg width="19" height="19" viewBox="0 0 19 19" fill="none" xmlns="http://www.w3.org/2000/svg">
<path d="M0.397498 0.397498C0.927495 -0.132499 1.78679 -0.132499 2.31679 0.397498L9.5 7.58071L16.6832 0.397498C17.2132 -0.132499 18.0725 -0.132499 18.6025 0.397498C19.1325 0.927495 19.1325 1.78679 18.6025 2.31679L11.4193 9.5L18.6025 16.6832C19.1325 17.2132 19.1325 18.0725 18.6025 18.6025C18.0725 19.1325 17.2132 19.1325 16.6832 18.6025L9.5 11.4193L2.31679 18.6025C1.78679 19.1325 0.927495 19.1325 0.397498 18.6025C-0.132499 18.0725 -0.132499 17.2132 0.397498 16.6832L7.58071 9.5L0.397498 2.31679C-0.132499 1.78679 -0.132499 0.927495 0.397498 0.397498Z" fill="white"/>
</svg>
