<svg width="40" height="31" viewBox="0 0 40 31" fill="none" xmlns="http://www.w3.org/2000/svg">
<path d="M23.9457 17.2169L21.9489 20.6667C22.4281 21.5092 27.524 30.1574 28.0032 31C29.4409 31 38.5783 31 39.984 31C39.9681 30.9682 24.2811 4.02205 23.9457 3.44974C18.8498 12.241 15.5272 18.0118 9.98403 27.5503H5.99042C5.99042 27.5503 21.23 1.2241 21.9489 0H17.9553C17.9553 0 1.32588 28.7108 0 31C1.4377 31 10.5751 31 11.9808 31C11.9808 31 13.3546 28.6313 15.7508 24.482C17.2204 26.9779 19.2652 30.4436 19.5847 31.0159C20.1118 31.0159 21.7093 31.0159 23.5783 31.0159C21.9808 28.2815 19.377 23.8462 17.7316 21.0482C19.4728 18.0277 21.5655 14.419 23.9297 10.3492C24.7604 11.78 33.131 26.1195 33.9776 27.5821H29.984C29.5208 26.7236 24.4409 18.0595 23.9457 17.2169Z" fill="white"/>
</svg>
